# xmcd
#
# Track frame offsets:
#	150
#	16480
#	41955
#	54401
#	67192
#	82020
#	97454
#	110669
#	121927
#	137754
#
# Disc length: 2067 seconds
#
# Revision: 1
# Processed by: cddbd v1.5.1PL0 Copyright (c) Steve Scherf et al.
# Submitted via: audiograbber 1.83.01
#
DISCID=9808110a
DTITLE=Dudley Neely - One More Ride
DYEAR=1900
DGENRE=Country
TTITLE0=Too Tuff
TTITLE1=One More Time
TTITLE2=Little Cowboy
TTITLE3=My Woman
TTITLE4=Lonely Bullfighter
TTITLE5=Ride For The Money
TTITLE6=South Texas Town
TTITLE7=Island Of Steele
TTITLE8=Who Da Thought It
TTITLE9=8 Seconds Addict
EXTD=www.rideforthemoney.com
EXTT0=
EXTT1=
EXTT2=
EXTT3=
EXTT4=
EXTT5=
EXTT6=
EXTT7=
EXTT8=
EXTT9=
PLAYORDER=
